<?xml version="1.0" encoding="UTF-8"?>
<svg version="1.1" xmlns="http://www.w3.org/2000/svg" width="626" height="470">
<path d="M0 0 C206.58 0 413.16 0 626 0 C626 155.1 626 310.2 626 470 C419.42 470 212.84 470 0 470 C0 314.9 0 159.8 0 0 Z " fill="#FEFEFE" transform="translate(0,0)"/>
<path d="M0 0 C1.41450691 -0.00786278 1.41450691 -0.00786278 2.85758972 -0.0158844 C4.84523539 -0.02228307 6.83291904 -0.02099564 8.82055664 -0.01245117 C11.83614805 -0.00396065 14.84983059 -0.03270167 17.86523438 -0.06445312 C19.80598902 -0.06606605 21.74674698 -0.06548585 23.6875 -0.0625 C24.57637405 -0.07373398 25.46524811 -0.08496796 26.38105774 -0.09654236 C34.07156817 -0.01241534 41.18146752 2.04493358 47.41796875 6.68359375 C53.68772971 13.25191476 55.43417806 20.62391206 55.31640625 29.50390625 C54.14869159 42.01513473 45.17169555 53.34262825 36.01171875 61.26953125 C31.36854948 64.65415727 26.50896399 66.7365189 21.04296875 68.43359375 C19.98899902 68.77583984 18.9350293 69.11808594 17.84912109 69.47070312 C11.79603387 70.95863108 5.58137393 70.74730788 -0.61375999 70.76911926 C-2.91367579 70.77748442 -5.21320879 70.79805456 -7.51301575 70.82165527 C-13.21881974 70.87775296 -18.92471647 70.91327871 -24.63067627 70.94927979 C-29.46770296 70.98057084 -34.30453968 71.01977712 -39.14141273 71.0695343 C-41.40201534 71.08952988 -43.66246913 71.09790434 -45.92314148 71.10583496 C-47.31229187 71.11880979 -48.7014373 71.13233046 -50.09057617 71.14648438 C-51.90304085 71.15742126 -51.90304085 71.15742126 -53.75212097 71.1685791 C-56.89549104 71.42850498 -59.12388132 72.09003166 -61.95703125 73.43359375 C-58.95121306 62.74624017 -50.77355449 53.72113497 -41.48803711 47.88061523 C-36.77277072 45.94827866 -32.70372346 46.04798581 -27.66015625 46.09765625 C-25.62890308 46.08514013 -23.59765306 46.07210284 -21.56640625 46.05859375 C-18.38920774 46.0546737 -15.21232447 46.0585693 -12.03515625 46.07324219 C-8.95135603 46.08187223 -5.86884332 46.06002823 -2.78515625 46.03515625 C-1.84939758 46.04850006 -0.91363892 46.06184387 0.05047607 46.07559204 C6.9766758 45.99901282 12.2300179 44.23542443 18.04296875 40.43359375 C21.32336823 36.92432919 22.0605792 35.49022089 21.98046875 30.68359375 C21.34548633 27.16892423 21.34548633 27.16892423 18.04296875 25.43359375 C15.91862315 25.13816584 15.91862315 25.13816584 13.55908203 25.19067383 C12.65449249 25.1875972 11.74990295 25.18452057 10.81790161 25.18135071 C9.84287689 25.18853622 8.86785217 25.19572174 7.86328125 25.203125 C6.85836639 25.20358322 5.85345154 25.20404144 4.81808472 25.20451355 C2.69137391 25.20753565 0.56466531 25.21542067 -1.56201172 25.2277832 C-4.81225461 25.24598301 -8.06221158 25.24829322 -11.3125 25.24804688 C-13.37890871 25.25296446 -15.44531548 25.25879383 -17.51171875 25.265625 C-18.48269501 25.26673782 -19.45367126 25.26785065 -20.45407104 25.26899719 C-21.3649649 25.27537704 -22.27585876 25.2817569 -23.21435547 25.28833008 C-24.01138885 25.29214188 -24.80842224 25.29595367 -25.62960815 25.29988098 C-28.14623383 25.44446363 -30.49916825 25.88602339 -32.95703125 26.43359375 C-22.731964 5.45741077 -22.731964 5.45741077 -12.04592896 1.0592041 C-8.09002807 -0.12556073 -4.10018709 -0.01344959 0 0 Z " fill="#040404" transform="translate(319.95703125,183.56640625)"/>
<path d="M0 0 C1.16015625 0.00322266 2.3203125 0.00644531 3.515625 0.00976562 C5.32546875 0.02233398 5.32546875 0.02233398 7.171875 0.03515625 C9.00492187 0.04192383 9.00492187 0.04192383 10.875 0.04882812 C13.89067446 0.0606081 16.90624998 0.07705772 19.921875 0.09765625 C16.99588128 2.04831873 14.05463645 3.56741816 10.921875 5.16015625 C2.81577764 9.49786721 -4.1890725 14.90199273 -10.453125 21.66015625 C-13.078125 24.09765625 -13.078125 24.09765625 -15.703125 24.72265625 C-19.00295435 23.85428011 -20.15963869 22.9398582 -22.078125 20.09765625 C-22.86478155 15.80680233 -23.03891606 13.60325341 -20.6796875 9.90625 C-14.63389575 2.73842266 -9.32643389 -0.04571781 0 0 Z " fill="#070707" transform="translate(273.078125,261.90234375)"/>
<path d="M0 0 C5.92650126 -0.04939701 11.85288297 -0.08571817 17.77954102 -0.10986328 C19.79616381 -0.11992773 21.81277199 -0.13358047 23.8293457 -0.15087891 C26.72611089 -0.17510769 29.62268331 -0.18647859 32.51953125 -0.1953125 C33.42274612 -0.20563507 34.325961 -0.21595764 35.25654602 -0.22659302 C36.09719101 -0.22674408 36.937836 -0.22689514 37.80395508 -0.22705078 C38.54341873 -0.231492 39.28288239 -0.23593323 40.04475403 -0.24050903 C42 0 42 0 45 2 C44.67 2.99 44.34 3.98 44 5 C43.34 4.67 42.68 4.34 42 4 C40.64247704 3.88295036 39.27974112 3.82322811 37.91748047 3.79467773 C37.07675995 3.77473251 36.23603943 3.75478729 35.36984253 3.73423767 C34.00727829 3.70916893 34.00727829 3.70916893 32.6171875 3.68359375 C31.68778351 3.66281265 30.75837952 3.64203156 29.80081177 3.62062073 C26.8256179 3.55512354 23.85033423 3.49623948 20.875 3.4375 C18.86066772 3.39431494 16.84634459 3.35070066 14.83203125 3.30664062 C9.88811337 3.19944197 4.94410497 3.09817499 0 3 C0 2.01 0 1.02 0 0 Z " fill="#474747" transform="translate(296,205)"/>
<path d="M0 0 C0 0.99 0 1.98 0 3 C-0.66 3 -1.32 3 -2 3 C-2 3.66 -2 4.32 -2 5 C-2.74636719 5.41894531 -3.49273437 5.83789062 -4.26171875 6.26953125 C-7.53308235 8.33688371 -8.83258079 10.38763464 -10.8125 13.6875 C-11.71935547 15.17830078 -11.71935547 15.17830078 -12.64453125 16.69921875 C-13.31548828 17.83810547 -13.31548828 17.83810547 -14 19 C-13.34 19.33 -12.68 19.66 -12 20 C-14.31 21.32 -16.62 22.64 -19 24 C-19.33 23.34 -19.66 22.68 -20 22 C-17.06162939 15.35672731 -8.15712381 0 0 0 Z " fill="#282828" transform="translate(278,233)"/>
<path d="M0 0 C6.27 0 12.54 0 19 0 C19 0.66 19 1.32 19 2 C17.27559635 2.98753064 15.54524974 3.96468806 13.8125 4.9375 C12.84957031 5.48277344 11.88664062 6.02804687 10.89453125 6.58984375 C8.19337158 7.90579333 5.95643899 8.57301887 3 9 C5.33333333 6.66666667 7.66666667 4.33333333 10 2 C6.7 1.67 3.4 1.34 0 1 C0 0.67 0 0.34 0 0 Z " fill="#202020" transform="translate(269,263)"/>
<path d="M0 0 C5.07537986 1.32926615 8.28587321 3.28587321 12 7 C13.27741533 9.30604565 14.11732475 11.4990868 15 14 C14.34 14.66 13.68 15.32 13 16 C12.319375 14.2984375 12.319375 14.2984375 11.625 12.5625 C10.42904194 8.95278308 10.42904194 8.95278308 8 8 C8 7.34 8 6.68 8 6 C7.278125 5.71125 6.55625 5.4225 5.8125 5.125 C3.20833333 4.08333333 0.60416667 3.04166667 -2 2 C-1.34 1.34 -0.68 0.68 0 0 Z " fill="#151515" transform="translate(358,186)"/>
<path d="M0 0 C0.66 0.66 1.32 1.32 2 2 C-2.93464157 7.76267666 -7.58256043 12.90376198 -14 17 C-14.33 16.34 -14.66 15.68 -15 15 C-14.34 15 -13.68 15 -13 15 C-12.773125 14.401875 -12.54625 13.80375 -12.3125 13.1875 C-10.66348536 10.43914226 -8.72640732 9.60788124 -6 8 C-5.67 7.01 -5.34 6.02 -5 5 C-4.34 4.67 -3.68 4.34 -3 4 C-2.67 3.01 -2.34 2.02 -2 1 C-1.34 0.67 -0.68 0.34 0 0 Z " fill="#202020" transform="translate(365,231)"/>
<path d="M0 0 C1.5 1.0625 1.5 1.0625 3 3 C3.43312876 6.89815886 3.29301631 9.3442016 1.6875 12.9375 C0.8521875 13.9584375 0.8521875 13.9584375 0 15 C-0.99 15 -1.98 15 -3 15 C-2.484375 14.175 -1.96875 13.35 -1.4375 12.5 C0.40559786 8.01245739 -0.20070795 5.71582308 -1 1 C-0.67 0.67 -0.34 0.34 0 0 Z " fill="#0E0E0E" transform="translate(342,209)"/>
<path d="M0 0 C1.76462683 3.08809695 2 4.23312136 2 8 C3.65 8 5.3 8 7 8 C7 7.34 7 6.68 7 6 C7.99 6.33 8.98 6.66 10 7 C8.8125 9 8.8125 9 7 11 C4.4375 11.375 4.4375 11.375 2 11 C0 9 0 9 -0.1953125 6.8359375 C-0.17210937 6.02382813 -0.14890625 5.21171875 -0.125 4.375 C-0.10695312 3.55773437 -0.08890625 2.74046875 -0.0703125 1.8984375 C-0.04710937 1.27195312 -0.02390625 0.64546875 0 0 Z " fill="#181818" transform="translate(253,275)"/>
<path d="M0 0 C0.99 0.33 1.98 0.66 3 1 C2.67 1.99 2.34 2.98 2 4 C0.33927151 4.68132451 -1.327767 5.34742127 -3 6 C-3.99 7.485 -3.99 7.485 -5 9 C-7.125 9.6875 -7.125 9.6875 -9 10 C-7.63491499 6.88271632 -6.13080302 4.91336262 -3.5625 2.6875 C-2.96566406 2.15511719 -2.36882812 1.62273437 -1.75390625 1.07421875 C-1.17511719 0.71972656 -0.59632813 0.36523438 0 0 Z " fill="#191919" transform="translate(261,264)"/>
<path d="M0 0 C0.33 0 0.66 0 1 0 C1 1.65 1 3.3 1 5 C1.99 5.33 2.98 5.66 4 6 C4 6.66 4 7.32 4 8 C1.03 8.66 -1.94 9.32 -5 10 C-3.35 6.7 -1.7 3.4 0 0 Z " fill="#171717" transform="translate(292,200)"/>
<path d="M0 0 C0.28875 0.639375 0.5775 1.27875 0.875 1.9375 C1.82823451 4.15206079 1.82823451 4.15206079 4 5 C1.69 6.32 -0.62 7.64 -3 9 C-3.33 8.34 -3.66 7.68 -4 7 C-3.22265625 5.2734375 -3.22265625 5.2734375 -2.0625 3.375 C-1.381875 2.26125 -0.70125 1.1475 0 0 Z " fill="#2D2D2D" transform="translate(262,248)"/>
<path d="M0 0 C1.32 0 2.64 0 4 0 C2.64486335 4.06540996 0.69203082 4.97300269 -3 7 C-5.19921875 6.609375 -5.19921875 6.609375 -7 6 C-6.4946875 5.65066406 -5.989375 5.30132812 -5.46875 4.94140625 C-4.8190625 4.48636719 -4.169375 4.03132813 -3.5 3.5625 C-2.8503125 3.11003906 -2.200625 2.65757812 -1.53125 2.19140625 C-0.77328125 1.60166016 -0.77328125 1.60166016 0 1 C0 0.67 0 0.34 0 0 Z " fill="#161616" transform="translate(279,265)"/>
<path d="M0 0 C0.66 0.33 1.32 0.66 2 1 C2 1.66 2 2.32 2 3 C-2.95 4.485 -2.95 4.485 -8 6 C-8.66 5.34 -9.32 4.68 -10 4 C-9.36191406 3.79503906 -8.72382813 3.59007812 -8.06640625 3.37890625 C-7.24011719 3.10949219 -6.41382813 2.84007812 -5.5625 2.5625 C-4.73878906 2.29566406 -3.91507812 2.02882812 -3.06640625 1.75390625 C-1.03780412 1.17844506 -1.03780412 1.17844506 0 0 Z " fill="#1D1D1D" transform="translate(347,246)"/>
<path d="M0 0 C0.33 0.99 0.66 1.98 1 3 C0.67 3.66 0.34 4.32 0 5 C-0.66 5 -1.32 5 -2 5 C-2.33 6.32 -2.66 7.64 -3 9 C-3.99 9 -4.98 9 -6 9 C-2.25 2.25 -2.25 2.25 0 0 Z " fill="#1F1F1F" transform="translate(299,191)"/>
<path d="M0 0 C0.99 0.33 1.98 0.66 3 1 C2.21654285 2.17219543 1.42297164 3.33763668 0.625 4.5 C0.18414062 5.1496875 -0.25671875 5.799375 -0.7109375 6.46875 C-1.13632812 6.9740625 -1.56171875 7.479375 -2 8 C-2.66 8 -3.32 8 -4 8 C-3.50168276 4.31245243 -2.89932357 2.39509338 0 0 Z " fill="#171717" transform="translate(267,242)"/>
<path d="M0 0 C0.33 0 0.66 0 1 0 C1 3.63 1 7.26 1 11 C0.01 11.495 0.01 11.495 -1 12 C-1.33 9.03 -1.66 6.06 -2 3 C-1.34 3 -0.68 3 0 3 C0 2.01 0 1.02 0 0 Z " fill="#3E3E3E" transform="translate(374,205)"/>
<path d="M0 0 C0.99 0.33 1.98 0.66 3 1 C1.3125 3.0625 1.3125 3.0625 -1 5 C-3.75 4.75 -3.75 4.75 -6 4 C-4 2.66666667 -2 1.33333333 0 0 Z " fill="#333333" transform="translate(334,226)"/>
<path d="M0 0 C1.32 0.33 2.64 0.66 4 1 C1.69 2.65 -0.62 4.3 -3 6 C-3.33 5.34 -3.66 4.68 -4 4 C-2.25 1.9375 -2.25 1.9375 0 0 Z " fill="#191919" transform="translate(268,274)"/>
<path d="M0 0 C0 3.5595477 -0.61579539 4.44549506 -3 7 C-5.1875 7.75 -5.1875 7.75 -7 8 C-5.50902342 4.2047869 -3.24299151 2.38957269 0 0 Z " fill="#E1E1E1" transform="translate(361,239)"/>
<path d="M0 0 C0.99 0.33 1.98 0.66 3 1 C1.68 3.31 0.36 5.62 -1 8 C-1.66 7.67 -2.32 7.34 -3 7 C-1.125 2.25 -1.125 2.25 0 0 Z " fill="#1B1B1B" transform="translate(369,223)"/>
<path d="M0 0 C0.66 0.33 1.32 0.66 2 1 C1.6875 2.875 1.6875 2.875 1 5 C0.01 5.66 -0.98 6.32 -2 7 C-2.33 6.34 -2.66 5.68 -3 5 C-1.5625 2.375 -1.5625 2.375 0 0 Z " fill="#2A2A2A" transform="translate(342,218)"/>
</svg>
