<?xml version="1.0" encoding="UTF-8"?>
<svg version="1.1" xmlns="http://www.w3.org/2000/svg" width="225" height="225">
<path d="M0 0 C74.25 0 148.5 0 225 0 C225 74.25 225 148.5 225 225 C150.75 225 76.5 225 0 225 C0 150.75 0 76.5 0 0 Z " fill="#FEFEFE" transform="translate(0,0)"/>
<path d="M0 0 C1.13969238 0.00942627 2.27938477 0.01885254 3.45361328 0.02856445 C27.06645641 0.45148608 46.55189758 9.82602145 63.125 26.375 C63.79402344 27.03242187 64.46304688 27.68984375 65.15234375 28.3671875 C80.66206699 44.75614675 85.81016281 66.65145481 85.44140625 88.5234375 C84.57837798 110.73106866 74.38718449 130.57322537 58.62548828 145.99511719 C47.14926689 156.54890881 32.31783342 163.39151308 17.125 166.375 C16.39539063 166.55804688 15.66578125 166.74109375 14.9140625 166.9296875 C2.86406678 168.8536364 -10.2923033 168.06176042 -21.875 164.375 C-23.56109375 163.88193359 -23.56109375 163.88193359 -25.28125 163.37890625 C-46.6630489 156.54335328 -63.28800005 141.23427264 -73.625 121.5 C-76.77138715 114.97735266 -79.02253773 108.36655113 -80.875 101.375 C-81.0500708 100.77743896 -81.2251416 100.17987793 -81.40551758 99.56420898 C-86.2063447 77.17782481 -79.7203424 55.17989527 -67.96484375 36.30859375 C-52.34167556 13.75605323 -27.54976017 -0.35414687 0 0 Z " fill="#080808" transform="translate(111.875,29.625)"/>
<path d="M0 0 C8.02363974 5.65785517 13.32292379 12.54875703 16 22 C17.2454591 32.82893909 15.32779875 42.52820447 8.75 51.375 C1.26779098 58.51710861 -6.9437819 62.97817079 -17.375 63.4375 C-27.30061762 63.10479773 -36.06833438 59.09349439 -43 52 C-49.98132246 42.68158247 -52.06016397 33.53788845 -51 22 C-49.05509025 12.94115863 -43.08209861 5.53960861 -35.5546875 0.296875 C-24.61770374 -5.98376914 -11.13612183 -6.10856606 0 0 Z " fill="#FCFCFC" transform="translate(131,84)"/>
<path d="M0 0 C8.0065342 10.44868169 13.89833552 21.52496713 13 35 C7.39 35 1.78 35 -4 35 C-4.556875 32.855 -5.11375 30.71 -5.6875 28.5 C-6.88301722 24.06536388 -8.23394311 20.18101623 -10.875 16.375 C-11.57625 15.26125 -12.2775 14.1475 -13 13 C-11.86943531 9.306822 -9.189589 6.92212413 -6.5 4.25 C-5.7059375 3.45078125 -4.911875 2.6515625 -4.09375 1.828125 C-2 0 -2 0 0 0 Z " fill="#F7F7F7" transform="translate(156,76)"/>
<path d="M0 0 C3.68069887 1.53643852 5.98775204 3.78150945 8.75 6.625 C9.54921875 7.44226563 10.3484375 8.25953125 11.171875 9.1015625 C11.77515625 9.72804688 12.3784375 10.35453125 13 11 C11.7019584 14.38933085 10.21336348 17.55311448 8.5 20.75 C6.09996365 25.46511566 4.92213364 29.80251951 4 35 C-1.61 35 -7.22 35 -13 35 C-13.89777901 21.5333149 -8.01220508 10.46103928 0 0 Z " fill="#F7F7F7" transform="translate(71,76)"/>
<path d="M0 0 C2.56451007 1.77806031 4.62685429 3.80900901 6.80078125 6.046875 C7.6 6.86414063 8.39921875 7.68140625 9.22265625 8.5234375 C9.8259375 9.14992187 10.42921875 9.77640625 11.05078125 10.421875 C4.05993163 18.3448379 -5.68823819 23.19122705 -15.94921875 25.421875 C-18.58921875 25.421875 -21.22921875 25.421875 -23.94921875 25.421875 C-23.94921875 19.811875 -23.94921875 14.201875 -23.94921875 8.421875 C-21.98984375 7.865 -20.03046875 7.308125 -18.01171875 6.734375 C-12.75981008 5.14964874 -8.39759149 3.23364171 -3.8515625 0.1796875 C-1.94921875 -0.578125 -1.94921875 -0.578125 0 0 Z " fill="#F9F9F9" transform="translate(139.94921875,143.578125)"/>
<path d="M0 0 C13.4666851 -0.89777901 24.53896072 4.98779492 35 13 C33.46356148 16.68069887 31.21849055 18.98775204 28.375 21.75 C27.55773437 22.54921875 26.74046875 23.3484375 25.8984375 24.171875 C25.27195313 24.77515625 24.64546875 25.3784375 24 26 C23.44699219 25.7215625 22.89398438 25.443125 22.32421875 25.15625 C14.96204713 21.49372429 8.12817558 18.46573658 0 17 C0 11.39 0 5.78 0 0 Z " fill="#F9F9F9" transform="translate(116,58)"/>
<path d="M0 0 C5.61 0 11.22 0 17 0 C19.25 7.625 19.25 7.625 19.93066406 9.99072266 C21.33469046 14.60713334 23.13263465 18.11557771 26 22 C24.46356148 25.68069887 22.21849055 27.98775204 19.375 30.75 C18.14910156 31.94882813 18.14910156 31.94882813 16.8984375 33.171875 C16.27195312 33.77515625 15.64546875 34.3784375 15 35 C7.58006396 28.21605848 4.11683123 20.45744377 1 11 C0.67 10.01 0.34 9.02 0 8 C0 5.36 0 2.72 0 0 Z " fill="#F9F9F9" transform="translate(58,116)"/>
<path d="M0 0 C5.61 0 11.22 0 17 0 C16.36088455 12.30297236 13.00490443 24.99509557 4 34 C-0.06108752 33.80041664 -2.06026394 31.24590088 -4.75 28.4375 C-5.54921875 27.61121094 -6.3484375 26.78492188 -7.171875 25.93359375 C-7.77515625 25.29550781 -8.3784375 24.65742188 -9 24 C-7.84404129 21.00992015 -6.60301732 18.18381471 -5.0625 15.375 C-2.54740819 10.45785422 -1.33589879 5.34359516 0 0 Z " fill="#F9F9F9" transform="translate(152,116)"/>
<path d="M0 0 C0 5.61 0 11.22 0 17 C-2.64 17.66 -5.28 18.32 -8 19 C-10.11470493 19.97640682 -12.20210732 21.01527805 -14.25 22.125 C-18.03481162 24.17428919 -19.61431796 25 -24 25 C-26.578125 22.8828125 -26.578125 22.8828125 -29.25 20.125 C-30.14203125 19.22007813 -31.0340625 18.31515625 -31.953125 17.3828125 C-34 15 -34 15 -34 13 C-28.2939147 8.16352686 -21.94655892 4.67900237 -15 2 C-14.01 1.5875 -13.02 1.175 -12 0.75 C-7.90686489 -0.27328378 -4.21471084 -0.12771851 0 0 Z " fill="#F8F8F8" transform="translate(110,58)"/>
<path d="M0 0 C4.27058107 1.70823243 8.16701377 3.61954408 12.20703125 5.78125 C15.76694398 7.42649135 15.76694398 7.42649135 23 9 C23 14.61 23 20.22 23 26 C11.35067586 26 1.46951321 21.75758689 -8 15 C-8.99 13.68 -9.98 12.36 -11 11 C-7.37 7.37 -3.74 3.74 0 0 Z " fill="#FAFAFA" transform="translate(87,143)"/>
<path d="M0 0 C5.94 0 11.88 0 18 0 C18.48828125 3.19010417 18.9765625 6.38020833 19.46484375 9.5703125 C19.95589266 12.71732669 20.47018719 15.85930783 21 19 C18.9237343 20.03513247 16.83868521 21.05266211 14.75 22.0625 C13.58984375 22.63097656 12.4296875 23.19945312 11.234375 23.78515625 C8.09355667 24.96485975 7.00646952 25.30230734 4 24 C3.3185556 21.69099865 2.65491481 19.37903988 2 17.0625 C1.80921875 16.42248047 1.6184375 15.78246094 1.421875 15.12304688 C-0.1000397 9.66046019 0 6.03981646 0 0 Z " fill="#F8F8F8" transform="translate(35,116)"/>
<path d="M0 0 C5.94 0 11.88 0 18 0 C17.5468815 8.42800413 16.56261339 15.95758439 14 24 C10.06964637 25.55120494 7.60056331 24.38586125 3.8125 22.8125 C2.74644531 22.38582031 1.68039063 21.95914063 0.58203125 21.51953125 C-2 20 -2 20 -2.91796875 18.05859375 C-3.02573591 15.35415113 -2.33920598 12.96804259 -1.5703125 10.390625 C-0.75747032 6.98336873 -0.43447772 3.47582175 0 0 Z " fill="#F8F8F8" transform="translate(174,116)"/>
<path d="M0 0 C7.22659156 3.61329578 11.38361652 11.91188839 15 19 C15 19.99 15 20.98 15 22 C12.73392948 23.03275341 10.46318061 24.05133551 8.1875 25.0625 C7.54490234 25.35705078 6.90230469 25.65160156 6.24023438 25.95507812 C1.33984375 28.11328125 1.33984375 28.11328125 -2 27 C-3.75390625 24.41796875 -3.75390625 24.41796875 -5.5625 21.1875 C-6.46162109 19.60001953 -6.46162109 19.60001953 -7.37890625 17.98046875 C-8.63135477 15.67777424 -9.82773473 13.34453054 -11 11 C-7.37 7.37 -3.74 3.74 0 0 Z " fill="#F8F8F8" transform="translate(170,60)"/>
<path d="M0 0 C3.68069887 1.53643852 5.98775204 3.78150945 8.75 6.625 C9.54921875 7.44226563 10.3484375 8.25953125 11.171875 9.1015625 C11.77515625 9.72804688 12.3784375 10.35453125 13 11 C11.23576999 14.75131012 9.06102752 18.23536211 6.875 21.75 C6.50246094 22.35199219 6.12992188 22.95398438 5.74609375 23.57421875 C4.83225276 25.05042343 3.91633402 26.52534154 3 28 C-2.46737191 26.25192871 -7.75824848 24.34205919 -13 22 C-12.44792302 17.51746453 -10.72805443 14.6953519 -8.1875 11 C-7.50042969 9.989375 -6.81335937 8.97875 -6.10546875 7.9375 C-4.15326675 5.21383412 -2.12131097 2.59324307 0 0 Z " fill="#F8F8F8" transform="translate(55,60)"/>
<path d="M0 0 C8.46482586 1.16333954 15.7692888 7.4428792 22 13 C20.46356148 16.68069887 18.21849055 18.98775204 15.375 21.75 C14.55773437 22.54921875 13.74046875 23.3484375 12.8984375 24.171875 C12.27195313 24.77515625 11.64546875 25.3784375 11 26 C7.24868988 24.23576999 3.76463789 22.06102752 0.25 19.875 C-0.35199219 19.50246094 -0.95398438 19.12992188 -1.57421875 18.74609375 C-3.05042343 17.83225276 -4.52534154 16.91633402 -6 16 C-4.25192871 10.53262809 -2.34205919 5.24175152 0 0 Z " fill="#F6F6F6" transform="translate(145,42)"/>
<path d="M0 0 C5.99932374 1.8331267 11.44920563 4.07321751 17 7 C16.690625 8.11375 16.38125 9.2275 16.0625 10.375 C14.83776329 15.22183037 14.41470693 20.02351682 14 25 C8.06 25 2.12 25 -4 25 C-4.55228531 16.02536368 -2.54103114 8.50791676 0 0 Z " fill="#F3F3F3" transform="translate(39,86)"/>
<path d="M0 0 C1.421875 2.58203125 1.421875 2.58203125 2.75 5.8125 C3.19859375 6.87082031 3.6471875 7.92914063 4.109375 9.01953125 C5.40252207 13.34703657 5.40252207 13.34703657 4 16 C1.63671875 17.8515625 1.63671875 17.8515625 -1.3125 19.625 C-2.27800781 20.21539062 -3.24351563 20.80578125 -4.23828125 21.4140625 C-6.45068364 22.684551 -8.71809459 23.8590473 -11 25 C-14.63 21.37 -18.26 17.74 -22 14 C-19.23195833 8.46391667 -15.1018543 6.29940278 -10 3 C-9.30390625 2.54625 -8.6078125 2.0925 -7.890625 1.625 C-3.40540541 -1.13513514 -3.40540541 -1.13513514 0 0 Z " fill="#F6F6F6" transform="translate(82,43)"/>
<path d="M0 0 C3.68069887 1.53643852 5.98775204 3.78150945 8.75 6.625 C9.54921875 7.44226563 10.3484375 8.25953125 11.171875 9.1015625 C11.77515625 9.72804687 12.3784375 10.35453125 13 11 C8.2560716 18.02804208 0.00248846 23.33250385 -8 26 C-10.92678249 20.44920563 -13.1668733 14.99932374 -15 9 C-13.824375 8.443125 -12.64875 7.88625 -11.4375 7.3125 C-7.28775193 5.24872155 -3.70395264 2.77796448 0 0 Z " fill="#F9F9F9" transform="translate(154,159)"/>
<path d="M0 0 C2.98216394 8.2712849 4 15.07824732 4 24 C-1.94 24 -7.88 24 -14 24 C-14.99 18.06 -15.98 12.12 -17 6 C-5 0 -5 0 0 0 Z " fill="#F3F3F3" transform="translate(188,87)"/>
<path d="M0 0 C0.87042243 1.88842514 1.72075474 3.78611902 2.5625 5.6875 C3.03816406 6.74324219 3.51382813 7.79898438 4.00390625 8.88671875 C5.05322011 12.16633893 5.00418265 13.75895539 4 17 C-3.71405984 19.41443999 -10.92913101 20.525243 -19 21 C-19 15.06 -19 9.12 -19 3 C-16.421875 2.505 -13.84375 2.01 -11.1875 1.5 C-10.37949951 1.34337891 -9.57149902 1.18675781 -8.73901367 1.02539062 C-5.77959587 0.46402571 -3.01877934 0 0 0 Z " fill="#F9F9F9" transform="translate(135,171)"/>
<path d="M0 0 C8.97463632 -0.55228531 16.49208324 1.45896886 25 4 C23.25192871 9.46737191 21.34205919 14.75824848 19 20 C12.54931918 19.37574057 6.3416427 18.33978367 0 17 C0 11.39 0 5.78 0 0 Z " fill="#F9F9F9" transform="translate(116,35)"/>
<path d="M0 0 C8.91 1.485 8.91 1.485 18 3 C18 8.94 18 14.88 18 21 C0.550668 20.07184404 0.550668 20.07184404 -5 17 C-5.94921875 15.31640625 -5.94921875 15.31640625 -6 13 C-4.31045178 8.50178159 -2.11759347 4.32161933 0 0 Z " fill="#F7F7F7" transform="translate(92,171)"/>
<path d="M0 0 C4.08078416 1.63231366 7.17484317 3.2583317 10.8125 5.625 C11.78832031 6.25664062 12.76414062 6.88828125 13.76953125 7.5390625 C14.50558594 8.02117187 15.24164063 8.50328125 16 9 C15.34496718 13.05819183 14.05440879 16.53971282 12.4375 20.3125 C11.75494141 21.91544922 11.75494141 21.91544922 11.05859375 23.55078125 C10.70925781 24.35902344 10.35992187 25.16726562 10 26 C2.11907794 22.42972842 -6.08698138 18.36952792 -11 11 C-7.37 7.37 -3.74 3.74 0 0 Z " fill="#F9F9F9" transform="translate(71,159)"/>
<path d="M0 0 C3.94949704 0.62816498 7.19892028 1.8645529 10.8125 3.5625 C11.78832031 4.01753906 12.76414063 4.47257813 13.76953125 4.94140625 C14.50558594 5.29074219 15.24164063 5.64007813 16 6 C15.42887939 10.20344771 14.00402094 12.96817364 11.6875 16.5 C10.79611328 17.87671875 10.79611328 17.87671875 9.88671875 19.28125 C8.03131197 21.95487965 6.06393016 24.48501225 4 27 C0.31930113 25.46356148 -1.98775204 23.21849055 -4.75 20.375 C-5.54921875 19.55773437 -6.3484375 18.74046875 -7.171875 17.8984375 C-7.77515625 17.27195313 -8.3784375 16.64546875 -9 16 C-7.56691865 12.04093183 -5.66858051 8.71281819 -3.375 5.1875 C-2.74335938 4.21167969 -2.11171875 3.23585937 -1.4609375 2.23046875 C-0.73777344 1.12638672 -0.73777344 1.12638672 0 0 Z " fill="#F7F7F7" transform="translate(168,140)"/>
<path d="M0 0 C1.5 2.046875 1.5 2.046875 3 4.75 C4.8317019 8.012719 6.6876154 11.05446247 9 14 C7.46781315 17.63061667 5.2816856 19.9863773 2.5 22.75 C1.7059375 23.54921875 0.911875 24.3484375 0.09375 25.171875 C-2 27 -2 27 -4 27 C-16.07544797 12.5460547 -16.07544797 12.5460547 -15.95703125 6.98046875 C-14.47154465 3.90642098 -12.23790692 3.45933075 -9.125 2.25 C-8.05507813 1.82203125 -6.98515625 1.3940625 -5.8828125 0.953125 C-3 0 -3 0 0 0 Z " fill="#F6F6F6" transform="translate(59,140)"/>
<path d="M0 0 C0 5.61 0 11.22 0 17 C-5.94 18.32 -11.88 19.64 -18 21 C-18.99 18.751875 -19.98 16.50375 -21 14.1875 C-21.31324219 13.48391357 -21.62648438 12.78032715 -21.94921875 12.05541992 C-23.19189908 9.19404984 -24 7.15104967 -24 4 C-15.80888297 1.35618125 -8.68268056 -0.52622306 0 0 Z " fill="#F9F9F9" transform="translate(110,35)"/>
</svg>
